<svg width="109" height="45" viewBox="0 0 109 45" fill="none" xmlns="http://www.w3.org/2000/svg">
<path d="M0.6765 45V0.199997H19.5565C22.3725 0.199997 24.9325 0.839998 27.2365 2.12C29.5405 3.35733 31.3752 5.10667 32.7405 7.368C34.1058 9.62933 34.7885 12.2747 34.7885 15.304C34.7885 18.2053 34.1058 20.808 32.7405 23.112C31.4178 25.3733 29.6045 27.144 27.3005 28.424C24.9965 29.704 22.3725 30.344 19.4285 30.344H6.8205V45H0.6765ZM6.8205 24.904H18.7245C20.5592 24.904 22.2232 24.5413 23.7165 23.816C25.2525 23.048 26.4472 21.9387 27.3005 20.488C28.1965 19.0373 28.6445 17.3093 28.6445 15.304C28.6445 13.256 28.1965 11.528 27.3005 10.12C26.4045 8.66933 25.2098 7.56 23.7165 6.792C22.2232 6.024 20.5805 5.64 18.7885 5.64H6.8205V24.904ZM54.703 45V32.008C51.5883 31.5813 48.943 30.5787 46.767 29C44.591 27.3787 42.927 25.288 41.775 22.728C40.623 20.168 40.047 17.288 40.047 14.088V0.199997H46.191V14.6C46.191 16.8187 46.639 18.8667 47.535 20.744C48.4737 22.5787 49.7963 24.072 51.503 25.224C53.2523 26.3333 55.3643 26.888 57.839 26.888C60.3137 26.888 62.4043 26.3333 64.111 25.224C65.8603 24.072 67.183 22.5787 68.079 20.744C68.975 18.8667 69.423 16.8187 69.423 14.6V0.199997H75.567V14.088C75.567 17.288 74.991 20.168 73.839 22.728C72.687 25.288 71.0017 27.3787 68.783 29C66.607 30.6213 63.9617 31.624 60.847 32.008V45H54.703ZM103.145 45C99.7312 44.9573 96.6165 44.36 93.8005 43.208C90.9845 42.0133 88.5525 40.392 86.5045 38.344C84.4992 36.296 82.9418 33.928 81.8325 31.24C80.7658 28.552 80.2325 25.672 80.2325 22.6C80.2325 19.528 80.7658 16.648 81.8325 13.96C82.9418 11.272 84.4992 8.904 86.5045 6.856C88.5525 4.808 90.9845 3.208 93.8005 2.056C96.6165 0.861331 99.7312 0.242663 103.145 0.199997H108.905V5.64H103.337C100.905 5.64 98.6645 6.088 96.6165 6.984C94.5685 7.83733 92.7765 9.032 91.2405 10.568C89.7472 12.0613 88.5738 13.832 87.7205 15.88C86.8672 17.928 86.4405 20.168 86.4405 22.6C86.4405 24.9893 86.8672 27.2293 87.7205 29.32C88.5738 31.368 89.7472 33.16 91.2405 34.696C92.7765 36.1893 94.5685 37.3627 96.6165 38.216C98.6645 39.0693 100.905 39.5173 103.337 39.56H108.905V45H103.145Z" fill="black"/>
</svg>
