<svg width="255" height="46" viewBox="0 0 255 46" fill="none" xmlns="http://www.w3.org/2000/svg">
<path d="M0.239 45V0.199997H19.119C21.935 0.199997 24.495 0.839998 26.799 2.12C29.103 3.35733 30.9377 5.10667 32.303 7.368C33.6683 9.62933 34.351 12.2747 34.351 15.304C34.351 18.2053 33.6683 20.808 32.303 23.112C30.9803 25.3733 29.167 27.144 26.863 28.424C24.559 29.704 21.935 30.344 18.991 30.344H6.383V45H0.239ZM6.383 24.904H18.287C20.1217 24.904 21.7857 24.5413 23.279 23.816C24.815 23.048 26.0097 21.9387 26.863 20.488C27.759 19.0373 28.207 17.3093 28.207 15.304C28.207 13.256 27.759 11.528 26.863 10.12C25.967 8.66933 24.7723 7.56 23.279 6.792C21.7857 6.024 20.143 5.64 18.351 5.64H6.383V24.904ZM54.2655 45V32.008C51.1508 31.5813 48.5055 30.5787 46.3295 29C44.1535 27.3787 42.4895 25.288 41.3375 22.728C40.1855 20.168 39.6095 17.288 39.6095 14.088V0.199997H45.7535V14.6C45.7535 16.8187 46.2015 18.8667 47.0975 20.744C48.0362 22.5787 49.3588 24.072 51.0655 25.224C52.8148 26.3333 54.9268 26.888 57.4015 26.888C59.8762 26.888 61.9668 26.3333 63.6735 25.224C65.4228 24.072 66.7455 22.5787 67.6415 20.744C68.5375 18.8667 68.9855 16.8187 68.9855 14.6V0.199997H75.1295V14.088C75.1295 17.288 74.5535 20.168 73.4015 22.728C72.2495 25.288 70.5642 27.3787 68.3455 29C66.1695 30.6213 63.5242 31.624 60.4095 32.008V45H54.2655ZM102.707 45C99.2937 44.9573 96.179 44.36 93.363 43.208C90.547 42.0133 88.115 40.392 86.067 38.344C84.0617 36.296 82.5043 33.928 81.395 31.24C80.3283 28.552 79.795 25.672 79.795 22.6C79.795 19.528 80.3283 16.648 81.395 13.96C82.5043 11.272 84.0617 8.904 86.067 6.856C88.115 4.808 90.547 3.208 93.363 2.056C96.179 0.861331 99.2937 0.242663 102.707 0.199997H108.467V5.64H102.899C100.467 5.64 98.227 6.088 96.179 6.984C94.131 7.83733 92.339 9.032 90.803 10.568C89.3097 12.0613 88.1363 13.832 87.283 15.88C86.4297 17.928 86.003 20.168 86.003 22.6C86.003 24.9893 86.4297 27.2293 87.283 29.32C88.1363 31.368 89.3097 33.16 90.803 34.696C92.339 36.1893 94.131 37.3627 96.179 38.216C98.227 39.0693 100.467 39.5173 102.899 39.56H108.467V45H102.707ZM130.782 45.768C127.454 45.768 124.51 45.0213 121.95 43.528C119.39 41.992 117.363 39.944 115.87 37.384C114.377 34.7813 113.63 31.88 113.63 28.68C113.63 25.48 114.377 22.6 115.87 20.04C117.363 17.4373 119.39 15.3893 121.95 13.896C124.51 12.36 127.454 11.592 130.782 11.592C134.11 11.592 137.054 12.36 139.614 13.896C142.217 15.3893 144.243 17.416 145.694 19.976C147.187 22.536 147.934 25.4373 147.934 28.68C147.934 31.88 147.187 34.7813 145.694 37.384C144.243 39.944 142.217 41.992 139.614 43.528C137.054 45.0213 134.11 45.768 130.782 45.768ZM130.782 40.712C133.043 40.712 135.006 40.1787 136.67 39.112C138.334 38.0453 139.635 36.616 140.574 34.824C141.513 32.9893 141.982 30.9413 141.982 28.68C141.982 26.4187 141.513 24.392 140.574 22.6C139.635 20.7653 138.334 19.3147 136.67 18.248C135.006 17.1813 133.043 16.648 130.782 16.648C128.563 16.648 126.601 17.1813 124.894 18.248C123.23 19.3147 121.929 20.7653 120.99 22.6C120.051 24.392 119.582 26.4187 119.582 28.68C119.582 30.9413 120.051 32.9893 120.99 34.824C121.929 36.616 123.23 38.0453 124.894 39.112C126.601 40.1787 128.563 40.712 130.782 40.712ZM170.781 45.768C167.837 45.768 165.191 45.1707 162.845 43.976C160.541 42.7387 158.727 41.032 157.405 38.856C156.125 36.68 155.485 34.1413 155.485 31.24V12.36H161.437V31.176C161.437 33.1387 161.863 34.8453 162.717 36.296C163.57 37.704 164.701 38.792 166.109 39.56C167.559 40.328 169.095 40.712 170.717 40.712C172.381 40.712 173.917 40.328 175.325 39.56C176.775 38.792 177.927 37.704 178.781 36.296C179.677 34.8453 180.125 33.1387 180.125 31.176V12.36H186.076V31.24C186.076 34.1413 185.415 36.68 184.093 38.856C182.77 41.032 180.957 42.7387 178.653 43.976C176.349 45.1707 173.725 45.768 170.781 45.768ZM195.422 45V26.12C195.422 23.2187 196.062 20.68 197.342 18.504C198.665 16.328 200.478 14.6427 202.782 13.448C205.086 12.2107 207.71 11.592 210.654 11.592C213.641 11.592 216.265 12.2107 218.526 13.448C220.83 14.6427 222.622 16.328 223.902 18.504C225.225 20.68 225.886 23.2187 225.886 26.12V45H219.998V26.184C219.998 24.2213 219.55 22.536 218.654 21.128C217.801 19.6773 216.649 18.568 215.198 17.8C213.79 17.032 212.275 16.648 210.654 16.648C209.033 16.648 207.497 17.032 206.046 17.8C204.638 18.568 203.486 19.6773 202.59 21.128C201.737 22.536 201.31 24.2213 201.31 26.184V45H195.422ZM246.371 45C243.469 45 241.187 44.168 239.523 42.504C237.901 40.84 237.091 38.5787 237.091 35.72V4.168H242.979V35.336C242.979 36.744 243.363 37.8747 244.131 38.728C244.941 39.5387 246.051 39.944 247.458 39.944H254.051V45H246.371ZM231.459 17.416V12.36H254.179V17.416H231.459Z" fill="black"/>
</svg>
